<?xml version="1.0" encoding="utf-8"?>
<!-- Generator: Adobe Illustrator 25.0.0, SVG Export Plug-In . SVG Version: 6.00 Build 0)  -->
<svg version="1.1" id="Camada_1" xmlns="http://www.w3.org/2000/svg" xmlns:xlink="http://www.w3.org/1999/xlink" x="0px" y="0px"
	 viewBox="0 0 480 120" style="enable-background:new 0 0 480 120;" xml:space="preserve">
<style type="text/css">
	.st0{fill:none;stroke:#fafafa;stroke-width:3.0388;stroke-miterlimit:10;}
	.st1{fill:#fafafa;stroke:none;stroke-width:3.0388;stroke-miterlimit:10;}
</style>
<g>
	<g>
		<g class="st1">
			<path d="M57.6,74c0-2.9-1.3-4.3-4.3-5.8L50.5,67c-7.6-3.6-11.7-7.3-11.7-14.3c0-7.5,5.9-12,15.8-12c4.5,0,9.1,1.1,12.2,3.1
				l-0.6,8.8h-6.4l-1.4-9.2l5.3,1.7V48c-3.4-2.1-5.7-3.5-8.8-3.5c-3,0-5.5,2.1-5.5,5c0,3,1.7,4.5,5,6.1l3.1,1.5
				c7.7,3.7,11,7,11,13.4c0,7.2-5.3,12.6-16.6,12.6c-4.6,0-10-0.9-13.8-3.2l0.4-9.3h6.5l1.6,10.1l-5-1.4v-2.9
				c3.9,1.8,6.6,2.9,10.5,2.9C55.8,79.2,57.6,76.8,57.6,74z"/>
			<path d="M88.9,77.1c1,0,2-0.4,3-1.2l1.5,1.4c-1.7,3.6-4.7,5.6-9.7,5.6c-6.1,0-9.6-2.6-9.6-9.1c0-2.4,0.1-4.2,0.1-6.6V56.6h-3.5
				v-4l7.1-0.9L74,54.3l4.7-11h7.3v11.1V73C85.9,75.8,87.2,77.1,88.9,77.1z M91.5,52v4.6H80.2V52H91.5z"/>
			<path d="M94.2,66.7c0-9.1,6.7-15.7,16.2-15.7s16.2,6.4,16.2,15.7c0,9.3-5.7,16.1-16.2,16.1C99.8,82.8,94.2,75.8,94.2,66.7z
				 M114.3,66.9c0-8.9-1.2-12.5-3.9-12.5s-3.9,3.6-3.9,12.5c0,8.9,1.2,12.6,3.9,12.6S114.3,75.8,114.3,66.9z"/>
			<path d="M141.5,65.7c0,6.8,3.1,10.5,8,10.5c2.7,0,4.5-1.2,6.2-2.9l2.4,2.3c-2.6,5-7.2,7.2-13,7.2c-8.3,0-15.9-5.1-15.9-15.8
				c0-10.2,7.7-16,17.5-16c6.9,0,11.4,4.3,11.7,9.3c-0.8,2.4-2.2,3.6-4.7,3.6c-2.6,0-5-1.6-5.3-7l-0.2-4l5.1,2.6
				c-1.8-0.8-3.2-1.2-5.3-1.2C145.3,54.3,141.5,57.2,141.5,65.7z"/>
			<path d="M175.3,37.7l1,0.7l-0.2,8.5v21.5c0,4,0.1,11.5,0.2,13.5h-12c0.1-2,0.2-9.5,0.2-12.9V43.8l-3.3-0.6v-2.8L175.3,37.7z
				 M178.8,78.7v3.1h-17.2v-3.1l5.3-1.2h6L178.8,78.7z M194.6,52L170,74.4v-3.9L189.3,52H194.6z M188.9,76.4l8.8,2.3v3.1h-14.2
				L177,66l8.1-7.2l10.1,22L188.9,76.4z M188,55.8l-6.3-0.9V52H196v2.9l-6.8,0.9H188z"/>
			<path d="M199.1,79.8l0.3-7.8h5.6l1.3,8.6l-3.6-1.1v-2.7c2.9,1.6,5,2.5,7.7,2.5c3.1,0,4.9-0.9,4.9-3.2c0-1.7-0.9-2.9-5-4l-3.5-0.9
				c-4.8-1.3-7.4-4.7-7.4-9.5c0-6.1,4.8-10.6,13.7-10.6c3.7,0,6.8,0.9,10.2,2.4l-0.5,6.9h-5.6l-2-8.1l3.9,1.7v2.5
				c-2.3-1.3-3.3-1.8-6.2-1.8c-2.3,0-4.1,1-4.1,3.1c0,1.3,0.7,2.5,4.9,3.7l3.4,0.9c5.7,1.5,8,4.8,8,9.7c0,7.2-5.7,10.8-14.6,10.8
				C206.2,82.8,202.5,81.8,199.1,79.8z"/>
			<path d="M249.7,69.2c0,5.1,3.8,8,8,8c2.8,0,4.6-0.8,6.1-2.3l1.7,1.8c-1.8,2.8-5.4,6.1-13,6.1c-8.5,0-12.4-5-12.4-10.6
				c0-4.9,3.1-8.9,11.9-11.9l0.9,1.3C250.8,63.8,249.7,66.1,249.7,69.2z M249.1,60.9c-2.6-3.6-3.5-6.6-3.5-9.6
				c0-6.2,4.7-10.2,12.2-10.2c7.1,0,11.1,3.1,11.1,8c0,4.2-3,7-9.7,9.6l-1.8-1.2c3.1-3.7,3.8-7.3,3.8-9.6c0-2.5-1.2-4-3.6-4
				c-2.2,0-3.6,1.8-3.6,4.2c0,1.6,0.5,3.4,2,5.8c0.9,1.3,2.2,2.9,8.2,9.4c5.9,6.5,8.2,8.6,13,13.8l-5-2.5l9.4,2.3l-0.6,5
				c-3.2,0.7-4.7,1-6.6,1c-3.7,0-6.6-0.8-9.7-3.4c-3.2-2.6-6-6.4-8.2-9.1C252.2,64.7,250.2,62.2,249.1,60.9z M272.9,57.6h5.5
				c-2.2,6.7-4.3,10.3-8.7,15.8l-2.1-1.7C270.9,66.6,271.9,63.5,272.9,57.6z M274.1,59.7l-6.2-1v-2.9h14v2.9l-6.4,1H274.1z"/>
			<path d="M300,44.2l3.4,1.8l-6.4-0.4v-3.7h15.6l20.6,28.3v11.6h-6.4L300,44.2z M297,78.2l6.6-0.9h2l8.2,0.9v3.6H297V78.2z
				 M302.2,41.9l4.3,3.7v36.3h-4.3V41.9z M321.8,41.9h16.7v3.6l-6.2,0.9h-1.9l-8.6-0.9V41.9z M329,41.9h4.3v39.9l-4.3-4.3V41.9z"/>
			<path d="M370.9,64.4c0,1.3-0.1,2.1-0.3,3.2h-24.5v-3.5h10.3c2.9,0,3.7-1,3.7-4.1c0-4.2-1.5-5.8-3.1-5.8c-2,0-3.5,2.6-3.5,11.5
				c0,7.3,3.6,10.4,7.6,10.4c3.1,0,5.3-1.2,7-2.9l2.4,2.3c-2.6,5-7.2,7.2-13.3,7.2c-9.2,0-15.9-5.9-15.9-16
				c0-10.5,8.5-15.8,16.5-15.8C366.5,51,370.9,57,370.9,64.4z"/>
			<path d="M377.5,55.8l-5.9-0.9V52h17v2.9l-7.1,0.9H377.5z M402.9,52l6.2,20.5l-1.8-0.9l6.5-19.5h4.7l-10.7,29.8h-5.5
				c-4.9-12.8-7-19-7.8-23.3l2.9-0.6l-8.3,23.9h-5.5L372.8,52h11.8l5.9,20.5l-1.4-0.9l6.4-19.5H402.9z M391.2,54.9V52h15.6v2.9
				l-5.9,0.9h-3.1L391.2,54.9z M414.5,55.6l-4.8-0.7V52h11.1v2.9l-5.3,0.7H414.5z"/>
			<path d="M422.5,79.8l0.3-7.8h5.6l1.3,8.6l-3.6-1.1v-2.7c2.9,1.6,5,2.5,7.7,2.5c3.1,0,4.9-0.9,4.9-3.2c0-1.7-0.9-2.9-5-4l-3.5-0.9
				c-4.8-1.3-7.4-4.7-7.4-9.5c0-6.1,4.8-10.6,13.7-10.6c3.7,0,6.8,0.9,10.2,2.4l-0.5,6.9h-5.6l-2-8.1l3.9,1.7v2.5
				c-2.3-1.3-3.3-1.8-6.2-1.8c-2.3,0-4.1,1-4.1,3.1c0,1.3,0.7,2.5,4.9,3.7l3.4,0.9c5.7,1.5,8,4.8,8,9.7c0,7.2-5.7,10.8-14.6,10.8
				C429.5,82.8,425.8,81.8,422.5,79.8z"/>
		</g>
	</g>
	<g>
		<line class="st0" x1="24.2" y1="13.4" x2="225.8" y2="12.4"/>
		<line class="st0" x1="22.7" y1="11.9" x2="22.7" y2="54.4"/>
	</g>
	<g>
		<line class="st0" x1="254.2" y1="107.6" x2="455.8" y2="106.6"/>
		<line class="st0" x1="457.3" y1="65.6" x2="457.3" y2="108.1"/>
	</g>
</g>
</svg>
